<svg width="1600" height="900" viewBox="0 0 1600 900" fill="none" xmlns="http://www.w3.org/2000/svg" role="img" aria-labelledby="title desc">
  <title id="title">JustHireMe system banner</title>
  <desc id="desc">A matte pastel README banner aligned to the JustHireMe interface design system.</desc>
  <defs>
    <style>
      @import url("https://fonts.googleapis.com/css2?family=Fraunces:opsz,wght,SOFT@9..144,400..750,50&amp;family=Inter:wght@500;600;700;800&amp;family=JetBrains+Mono:wght@500;700&amp;display=swap");
      .display { font-family: "Fraunces", "Instrument Serif", Georgia, serif; font-variation-settings: "opsz" 144, "SOFT" 50; }
      .sans { font-family: "Inter", system-ui, -apple-system, BlinkMacSystemFont, "Segoe UI", sans-serif; }
      .mono { font-family: "JetBrains Mono", ui-monospace, Consolas, monospace; }
      .label { font: 700 22px "Inter", system-ui, sans-serif; fill: #1F1A14; letter-spacing: 0; }
      .small { font: 600 16px "Inter", system-ui, sans-serif; fill: #4A463E; letter-spacing: 0; }
      .tiny { font: 700 13px "JetBrains Mono", Consolas, monospace; fill: #8A847A; letter-spacing: 0.04em; }
      .panel { fill: rgba(255,255,255,0.54); stroke: rgba(201,100,66,0.16); }
      .panel-strong { fill: rgba(255,255,255,0.70); stroke: rgba(201,100,66,0.18); }
      .line { stroke: rgba(31,26,20,0.08); }
    </style>
    <linearGradient id="page" x1="0" y1="0" x2="1600" y2="900" gradientUnits="userSpaceOnUse">
      <stop stop-color="#F7F3EA"/>
      <stop offset="0.55" stop-color="#F4F3EE"/>
      <stop offset="1" stop-color="#EDEBE3"/>
    </linearGradient>
    <linearGradient id="heroWash" x1="380" y1="128" x2="1124" y2="426" gradientUnits="userSpaceOnUse">
      <stop stop-color="#FCE0C8"/>
      <stop offset="0.58" stop-color="#F6DDE3"/>
      <stop offset="1" stop-color="#E7DDF1"/>
    </linearGradient>
    <linearGradient id="rule" x1="424" y1="362" x2="1078" y2="362" gradientUnits="userSpaceOnUse">
      <stop stop-color="#C96442"/>
      <stop offset="0.32" stop-color="#D17847"/>
      <stop offset="0.66" stop-color="#5A9DA8"/>
      <stop offset="1" stop-color="#8B7BB8"/>
    </linearGradient>
    <filter id="matteShadow" x="-8%" y="-10%" width="116%" height="125%" color-interpolation-filters="sRGB">
      <feDropShadow dx="0" dy="10" stdDeviation="24" flood-color="#1F1A14" flood-opacity="0.07"/>
      <feDropShadow dx="0" dy="2" stdDeviation="4" flood-color="#1F1A14" flood-opacity="0.05"/>
    </filter>
    <pattern id="paperDots" width="30" height="30" patternUnits="userSpaceOnUse">
      <circle cx="3" cy="4" r="1.1" fill="#1F1A14" opacity="0.035"/>
    </pattern>
  </defs>

  <rect width="1600" height="900" fill="url(#page)"/>
  <rect width="1600" height="900" fill="url(#paperDots)"/>
  <circle cx="154" cy="112" r="310" fill="#FCE0C8" opacity="0.42"/>
  <circle cx="1390" cy="130" r="312" fill="#E7DDF1" opacity="0.35"/>
  <circle cx="1230" cy="838" r="352" fill="#CFE4DF" opacity="0.38"/>
  <circle cx="124" cy="830" r="290" fill="#F6DDE3" opacity="0.28"/>

  <g filter="url(#matteShadow)">
    <rect x="72" y="70" width="1456" height="760" rx="18" fill="rgba(255,255,255,0.36)" stroke="rgba(31,26,20,0.07)"/>
    <rect x="104" y="104" width="1392" height="692" rx="10" fill="rgba(248,246,239,0.88)" stroke="rgba(31,26,20,0.06)"/>
  </g>

  <g>
    <rect x="128" y="130" width="226" height="640" rx="8" fill="#EDEBE3" stroke="rgba(31,26,20,0.08)"/>
    <rect x="148" y="148" width="24" height="24" rx="6" fill="#1F1A14"/>
    <path d="M156 160H164M160 156V164" stroke="#F4F3EE" stroke-width="2" stroke-linecap="round"/>
    <text x="186" y="169" class="sans" font-size="20" font-weight="800" fill="#1F1A14">JustHireMe</text>
    <text x="186" y="188" class="tiny">v0.1-alpha</text>

    <g transform="translate(148 224)">
      <rect width="184" height="38" rx="8" fill="#FCE0C8"/>
      <rect x="14" y="9" width="21" height="21" rx="6" fill="#5B88B5"/>
      <text x="53" y="25" class="sans" font-size="15" font-weight="800" fill="#5E3318">Dashboard</text>
    </g>
    <g class="small">
      <rect x="162" y="280" width="22" height="22" rx="6" fill="#DCEAD4"/>
      <text x="201" y="297">Customize Job</text>
      <rect x="162" y="328" width="22" height="22" rx="6" fill="#E7DDF1"/>
      <text x="201" y="345">Job Pipeline</text>
      <rect x="162" y="376" width="22" height="22" rx="6" fill="#DCEAD4"/>
      <text x="201" y="393">Knowledge</text>
      <rect x="162" y="424" width="22" height="22" rx="6" fill="#FCE0C8"/>
      <text x="201" y="441">Activity</text>
      <rect x="162" y="472" width="22" height="22" rx="6" fill="#F6DDE3"/>
      <text x="201" y="489">Profile</text>
    </g>
    <rect x="148" y="694" width="184" height="52" rx="8" fill="rgba(255,255,255,0.70)" stroke="rgba(31,26,20,0.06)"/>
    <text x="166" y="718" class="tiny">Backend</text>
    <circle cx="172" cy="734" r="3.5" fill="#5B8C44"/>
    <text x="186" y="738" class="tiny">online :8765</text>
  </g>

  <g>
    <rect x="382" y="130" width="736" height="276" rx="8" fill="url(#heroWash)" opacity="0.46"/>
    <rect x="382" y="130" width="736" height="276" rx="8" class="panel-strong"/>
    <text x="418" y="174" class="tiny">LOCAL-FIRST JOB INTELLIGENCE</text>
    <text x="418" y="314" class="display" font-size="118" font-weight="720" letter-spacing="-2" fill="#1F1A14">JustHireMe</text>
    <rect x="420" y="348" width="652" height="8" rx="4" fill="url(#rule)"/>
    <text x="420" y="389" class="sans" font-size="26" font-weight="750" fill="#4A463E">Scrape better roles. Rank fit. Tailor materials.</text>
  </g>

  <g>
    <rect x="1142" y="130" width="310" height="276" rx="8" class="panel-strong"/>
    <text x="1172" y="178" class="label">Now</text>
    <text x="1172" y="199" class="tiny">ready for next action</text>
    <rect x="1170" y="224" width="114" height="42" rx="8" fill="#1F1A14"/>
    <text x="1227" y="250" text-anchor="middle" class="sans" font-size="15" font-weight="800" fill="#F4F3EE">SCAN</text>
    <rect x="1300" y="224" width="114" height="42" rx="8" fill="rgba(255,255,255,0.62)" stroke="rgba(201,100,66,0.42)"/>
    <text x="1357" y="250" text-anchor="middle" class="sans" font-size="15" font-weight="800" fill="#5E3318">TAILOR</text>
    <path d="M1170 331C1187 318 1200 312 1213 310C1231 313 1241 315 1254 323C1275 337 1296 337 1317 328C1333 319 1346 303 1360 298C1371 295 1380 292 1391 296L1402 299" stroke="#5A9DA8" stroke-width="3" stroke-linecap="round"/>
  </g>

  <g>
    <rect x="382" y="426" width="160" height="118" rx="8" fill="#E1EAF4" stroke="rgba(91,136,181,0.38)"/>
    <rect x="400" y="444" width="30" height="30" rx="8" fill="#5B88B5"/>
    <text x="470" y="470" text-anchor="middle" class="small">Active</text>
    <text x="406" y="522" class="display" font-size="40" font-weight="700" fill="#1F1A14">342</text>

    <rect x="566" y="426" width="160" height="118" rx="8" fill="#F5E8B8" stroke="rgba(196,152,64,0.38)"/>
    <rect x="584" y="444" width="30" height="30" rx="8" fill="#C49840"/>
    <text x="654" y="470" text-anchor="middle" class="small">Scored</text>
    <text x="590" y="522" class="display" font-size="40" font-weight="700" fill="#1F1A14">87</text>

    <rect x="750" y="426" width="160" height="118" rx="8" fill="#DCEAD4" stroke="rgba(106,144,104,0.38)"/>
    <rect x="768" y="444" width="30" height="30" rx="8" fill="#6A9068"/>
    <text x="838" y="470" text-anchor="middle" class="small">Ready</text>
    <text x="774" y="522" class="display" font-size="40" font-weight="700" fill="#1F1A14">24</text>

    <rect x="934" y="426" width="160" height="118" rx="8" fill="#FCE0C8" stroke="rgba(209,120,71,0.38)"/>
    <rect x="952" y="444" width="30" height="30" rx="8" fill="#D17847"/>
    <text x="1022" y="470" text-anchor="middle" class="small">Applied</text>
    <text x="958" y="522" class="display" font-size="40" font-weight="700" fill="#1F1A14">9</text>
  </g>

  <g>
    <rect x="382" y="570" width="464" height="198" rx="8" class="panel"/>
    <text x="412" y="614" class="label">Best leads</text>
    <g transform="translate(410 632)">
      <rect width="36" height="22" rx="6" fill="#E1EAF4"/>
      <rect x="52" y="6" width="106" height="7" rx="3.5" fill="#8A847A" opacity="0.48"/>
      <rect x="172" y="6" width="64" height="7" rx="3.5" fill="#B5AFA3" opacity="0.45"/>
      <rect x="314" y="-2" width="54" height="26" rx="13" fill="rgba(255,255,255,0.60)" stroke="#6A9068" stroke-width="2"/>
      <text x="341" y="15" text-anchor="middle" class="tiny" fill="#1F1A14">92</text>
      <path d="M0 30H394" class="line"/>
    </g>
    <g transform="translate(410 664)">
      <rect width="36" height="22" rx="6" fill="#DCEAD4"/>
      <rect x="52" y="6" width="106" height="7" rx="3.5" fill="#8A847A" opacity="0.48"/>
      <rect x="172" y="6" width="64" height="7" rx="3.5" fill="#B5AFA3" opacity="0.45"/>
      <rect x="314" y="-2" width="54" height="26" rx="13" fill="rgba(255,255,255,0.60)" stroke="#6A9068" stroke-width="2"/>
      <text x="341" y="15" text-anchor="middle" class="tiny" fill="#1F1A14">86</text>
      <path d="M0 30H394" class="line"/>
    </g>
    <g transform="translate(410 696)">
      <rect width="36" height="22" rx="6" fill="#FCE0C8"/>
      <rect x="52" y="6" width="106" height="7" rx="3.5" fill="#8A847A" opacity="0.48"/>
      <rect x="172" y="6" width="64" height="7" rx="3.5" fill="#B5AFA3" opacity="0.45"/>
      <rect x="314" y="-2" width="54" height="26" rx="13" fill="rgba(255,255,255,0.60)" stroke="#D17847" stroke-width="2"/>
      <text x="341" y="15" text-anchor="middle" class="tiny" fill="#1F1A14">74</text>
      <path d="M0 30H394" class="line"/>
    </g>
    <g transform="translate(410 728)">
      <rect width="36" height="22" rx="6" fill="#E7DDF1"/>
      <rect x="52" y="6" width="106" height="7" rx="3.5" fill="#8A847A" opacity="0.48"/>
      <rect x="172" y="6" width="64" height="7" rx="3.5" fill="#B5AFA3" opacity="0.45"/>
      <rect x="314" y="-2" width="54" height="26" rx="13" fill="rgba(255,255,255,0.60)" stroke="#C49840" stroke-width="2"/>
      <text x="341" y="15" text-anchor="middle" class="tiny" fill="#1F1A14">58</text>
    </g>
  </g>

  <g>
    <rect x="874" y="570" width="268" height="198" rx="8" class="panel"/>
    <text x="904" y="614" class="label">Profile graph</text>
    <path d="M970 674L930 638M970 674L924 718M970 674L1028 630M970 674L1060 710M970 674L1090 666M930 638L1028 630M924 718L1060 710" stroke="#8A847A" stroke-opacity="0.34" stroke-width="2"/>
    <circle cx="970" cy="674" r="18" fill="#6A9068"/>
    <circle cx="930" cy="638" r="8" fill="#5A9DA8"/>
    <circle cx="924" cy="718" r="8" fill="#D17847"/>
    <circle cx="1028" cy="630" r="8" fill="#8B7BB8"/>
    <circle cx="1060" cy="710" r="8" fill="#C28098"/>
    <circle cx="1090" cy="666" r="8" fill="#C49840"/>
  </g>

  <g>
    <rect x="1170" y="570" width="282" height="198" rx="8" class="panel"/>
    <text x="1200" y="614" class="label">Tailored materials</text>
    <rect x="1198" y="630" width="104" height="108" rx="6" fill="#FFFDF8" stroke="rgba(31,26,20,0.10)"/>
    <circle cx="1229" cy="662" r="11" fill="#4A463E"/>
    <rect x="1250" y="655" width="34" height="6" rx="3" fill="#8A847A" opacity="0.55"/>
    <rect x="1218" y="691" width="58" height="5" rx="2.5" fill="#B5AFA3" opacity="0.55"/>
    <rect x="1218" y="709" width="72" height="5" rx="2.5" fill="#6A9068" opacity="0.55"/>
    <rect x="1326" y="634" width="82" height="28" rx="6" fill="#FCE0C8" stroke="rgba(209,120,71,0.42)"/>
    <rect x="1326" y="674" width="82" height="28" rx="6" fill="#E7DDF1" stroke="rgba(139,123,184,0.42)"/>
    <rect x="1326" y="714" width="82" height="28" rx="6" fill="#DCEAD4" stroke="rgba(106,144,104,0.42)"/>
  </g>

  <g>
    <rect x="446" y="802" width="132" height="42" rx="8" fill="rgba(255,255,255,0.48)" stroke="rgba(90,157,168,0.55)"/>
    <text x="512" y="828" text-anchor="middle" class="tiny" fill="#4A463E">Sources</text>
    <path d="M588 823H640" stroke="#8A847A" stroke-opacity="0.42" stroke-width="2"/>
    <rect x="640" y="802" width="132" height="42" rx="8" fill="rgba(255,255,255,0.48)" stroke="rgba(106,144,104,0.55)"/>
    <text x="706" y="828" text-anchor="middle" class="tiny" fill="#4A463E">Quality</text>
    <path d="M782 823H834" stroke="#8A847A" stroke-opacity="0.42" stroke-width="2"/>
    <rect x="834" y="802" width="132" height="42" rx="8" fill="rgba(255,255,255,0.48)" stroke="rgba(196,152,64,0.55)"/>
    <text x="900" y="828" text-anchor="middle" class="tiny" fill="#4A463E">Ranking</text>
    <path d="M976 823H1028" stroke="#8A847A" stroke-opacity="0.42" stroke-width="2"/>
    <rect x="1028" y="802" width="132" height="42" rx="8" fill="rgba(255,255,255,0.48)" stroke="rgba(139,123,184,0.55)"/>
    <text x="1094" y="828" text-anchor="middle" class="tiny" fill="#4A463E">Graph</text>
    <path d="M1170 823H1222" stroke="#8A847A" stroke-opacity="0.42" stroke-width="2"/>
    <rect x="1222" y="802" width="132" height="42" rx="8" fill="rgba(255,255,255,0.48)" stroke="rgba(209,120,71,0.55)"/>
    <text x="1288" y="828" text-anchor="middle" class="tiny" fill="#4A463E">Materials</text>
  </g>
</svg>
